<?xml version="1.0" standalone="no"?><svg xmlns:xlink="http://www.w3.org/1999/xlink" xmlns="http://www.w3.org/2000/svg" viewBox="0 0 1000 599.9925086217737" preserveAspectRatio="xMaxYMax slice"><g transform="scale(1.337746111840926)"><rect x="0" y="0" width="747.53" height="448.51800000000003" fill="#ffffff"/><g transform="translate(7.48,7.48) scale(2.9899999999999998) rotate(0)"><path fill-rule="evenodd" clip-rule="evenodd" d="M10 20C15.5228 20 20 15.5228 20 10C20 4.47715 15.5228 0 10 0C4.47715 0 0 4.47715 0 10C0 15.5228 4.47715 20 10 20ZM10 17C13.866 17 17 13.866 17 10C17 6.13401 13.866 3 10 3C6.13401 3 3 6.13401 3 10C3 13.866 6.13401 17 10 17Z" fill="#8a9ef0"/></g><g transform="translate(82.23,7.48) scale(2.9899999999999998) rotate(0)"><path fill-rule="evenodd" clip-rule="evenodd" d="M10 20C15.5228 20 20 15.5228 20 10C20 4.47715 15.5228 0 10 0C4.47715 0 0 4.47715 0 10C0 15.5228 4.47715 20 10 20ZM10 17C13.866 17 17 13.866 17 10C17 6.13401 13.866 3 10 3C6.13401 3 3 6.13401 3 10C3 13.866 6.13401 17 10 17Z" fill="#d4dbf9"/></g><g transform="translate(156.98,7.48) scale(2.9899999999999998) rotate(0)"><path d="M5 0H10L5 5L0 10V5L5 0Z" fill="#2549e3"/><path d="M20 15V20H15L20 15Z" fill="#2549e3"/><path d="M20 5V10L15 15L10 20H5L20 5Z" fill="#2549e3"/><path d="M15 0H20L5 15.0002L0 20.0002V15.0002L15 0Z" fill="#2549e3"/></g><g transform="translate(231.73,7.48) scale(2.9899999999999998) rotate(0)"><path d="M10 5L5 0L0 5L5 10L0 15L5 20L10 15L15 20L20 15L15 10L20 5L15 0L10 5Z" fill="#ffaabe"/></g><g transform="translate(306.49,7.48) scale(2.9899999999999998) rotate(0)"><path d="M10 5L5 0L0 5L5 10L0 15L5 20L10 15L15 20L20 15L15 10L20 5L15 0L10 5Z" fill="#ffabbf"/></g><g transform="translate(381.24,7.48) scale(2.9899999999999998) rotate(0)"><path d="M5 0H10L5 5L0 10V5L5 0Z" fill="#b3c0f5"/><path d="M20 15V20H15L20 15Z" fill="#b3c0f5"/><path d="M20 5V10L15 15L10 20H5L20 5Z" fill="#b3c0f5"/><path d="M15 0H20L5 15.0002L0 20.0002V15.0002L15 0Z" fill="#b3c0f5"/></g><g transform="translate(455.99,7.48) scale(2.9899999999999998) rotate(0)"><path fill-rule="evenodd" clip-rule="evenodd" d="M10 20C15.5228 20 20 15.5228 20 10C20 4.47715 15.5228 0 10 0C4.47715 0 0 4.47715 0 10C0 15.5228 4.47715 20 10 20ZM10 17C13.866 17 17 13.866 17 10C17 6.13401 13.866 3 10 3C6.13401 3 3 6.13401 3 10C3 13.866 6.13401 17 10 17Z" fill="#ffe5eb"/></g><g transform="translate(530.75,7.48) scale(2.9899999999999998) rotate(0)"><path d="M10 5L5 0L0 5L5 10L0 15L5 20L10 15L15 20L20 15L15 10L20 5L15 0L10 5Z" fill="#ffeef2"/></g><rect x="605.4993" y="7.475300000000001" width="59.8024" height="59.8024" fill="#ffffff"/><g transform="translate(605.5,7.48) scale(1.4949999999999999) rotate(0)"><path d="M10 5L5 0L0 5L5 10L0 15L5 20L10 15L15 20L20 15L15 10L20 5L15 0L10 5Z" fill="#a9b8f4"/></g><g transform="translate(635.4,7.48) scale(1.4949999999999999) rotate(0)"><path d="M5 0H10L5 5L0 10V5L5 0Z" fill="#4f6de8"/><path d="M20 15V20H15L20 15Z" fill="#4f6de8"/><path d="M20 5V10L15 15L10 20H5L20 5Z" fill="#4f6de8"/><path d="M15 0H20L5 15.0002L0 20.0002V15.0002L15 0Z" fill="#4f6de8"/></g><g transform="translate(605.5,37.38) scale(1.4949999999999999) rotate(0)"><path d="M5 0H10L5 5L0 10V5L5 0Z" fill="#ff8da8"/><path d="M20 15V20H15L20 15Z" fill="#ff8da8"/><path d="M20 5V10L15 15L10 20H5L20 5Z" fill="#ff8da8"/><path d="M15 0H20L5 15.0002L0 20.0002V15.0002L15 0Z" fill="#ff8da8"/></g><g transform="translate(635.4,37.38) scale(1.4949999999999999) rotate(0)"><path d="M10 5L5 0L0 5L5 10L0 15L5 20L10 15L15 20L20 15L15 10L20 5L15 0L10 5Z" fill="#254ae3"/></g><g transform="translate(680.25,7.48) scale(2.9899999999999998) rotate(0)"><path fill-rule="evenodd" clip-rule="evenodd" d="M10 20C15.5228 20 20 15.5228 20 10C20 4.47715 15.5228 0 10 0C4.47715 0 0 4.47715 0 10C0 15.5228 4.47715 20 10 20ZM10 17C13.866 17 17 13.866 17 10C17 6.13401 13.866 3 10 3C6.13401 3 3 6.13401 3 10C3 13.866 6.13401 17 10 17Z" fill="#ff4974"/></g><g transform="translate(7.48,82.23) scale(2.9899999999999998) rotate(0)"><path d="M10 5L5 0L0 5L5 10L0 15L5 20L10 15L15 20L20 15L15 10L20 5L15 0L10 5Z" fill="#ffc0cf"/></g><g transform="translate(82.23,82.23) scale(2.9899999999999998) rotate(0)"><path d="M5 0H10L5 5L0 10V5L5 0Z" fill="#798fee"/><path d="M20 15V20H15L20 15Z" fill="#798fee"/><path d="M20 5V10L15 15L10 20H5L20 5Z" fill="#798fee"/><path d="M15 0H20L5 15.0002L0 20.0002V15.0002L15 0Z" fill="#798fee"/></g><g transform="translate(156.98,82.23) scale(2.9899999999999998) rotate(0)"><path d="M10 5L5 0L0 5L5 10L0 15L5 20L10 15L15 20L20 15L15 10L20 5L15 0L10 5Z" fill="#ff4d77"/></g><g transform="translate(231.73,82.23) scale(2.9899999999999998) rotate(0)"><path d="M5 0H10L5 5L0 10V5L5 0Z" fill="#ffa5bb"/><path d="M20 15V20H15L20 15Z" fill="#ffa5bb"/><path d="M20 5V10L15 15L10 20H5L20 5Z" fill="#ffa5bb"/><path d="M15 0H20L5 15.0002L0 20.0002V15.0002L15 0Z" fill="#ffa5bb"/></g><g transform="translate(306.49,82.23) scale(2.9899999999999998) rotate(0)"><path fill-rule="evenodd" clip-rule="evenodd" d="M10 20C15.5228 20 20 15.5228 20 10C20 4.47715 15.5228 0 10 0C4.47715 0 0 4.47715 0 10C0 15.5228 4.47715 20 10 20ZM10 17C13.866 17 17 13.866 17 10C17 6.13401 13.866 3 10 3C6.13401 3 3 6.13401 3 10C3 13.866 6.13401 17 10 17Z" fill="#7189ed"/></g><g transform="translate(381.24,82.23) scale(2.9899999999999998) rotate(0)"><path fill-rule="evenodd" clip-rule="evenodd" d="M10 20C15.5228 20 20 15.5228 20 10C20 4.47715 15.5228 0 10 0C4.47715 0 0 4.47715 0 10C0 15.5228 4.47715 20 10 20ZM10 17C13.866 17 17 13.866 17 10C17 6.13401 13.866 3 10 3C6.13401 3 3 6.13401 3 10C3 13.866 6.13401 17 10 17Z" fill="#ffc2d1"/></g><rect x="455.99330000000003" y="82.2283" width="59.8024" height="59.8024" fill="#ffffff"/><g transform="translate(455.99,82.23) scale(1.4949999999999999) rotate(0)"><path d="M5 0H10L5 5L0 10V5L5 0Z" fill="#fff1f5"/><path d="M20 15V20H15L20 15Z" fill="#fff1f5"/><path d="M20 5V10L15 15L10 20H5L20 5Z" fill="#fff1f5"/><path d="M15 0H20L5 15.0002L0 20.0002V15.0002L15 0Z" fill="#fff1f5"/></g><g transform="translate(485.89,82.23) scale(1.4949999999999999) rotate(0)"><path fill-rule="evenodd" clip-rule="evenodd" d="M10 20C15.5228 20 20 15.5228 20 10C20 4.47715 15.5228 0 10 0C4.47715 0 0 4.47715 0 10C0 15.5228 4.47715 20 10 20ZM10 17C13.866 17 17 13.866 17 10C17 6.13401 13.866 3 10 3C6.13401 3 3 6.13401 3 10C3 13.866 6.13401 17 10 17Z" fill="#ff4471"/></g><g transform="translate(455.99,112.13) scale(1.4949999999999999) rotate(0)"><path d="M10 5L5 0L0 5L5 10L0 15L5 20L10 15L15 20L20 15L15 10L20 5L15 0L10 5Z" fill="#e3e8fb"/></g><g transform="translate(485.89,112.13) scale(1.4949999999999999) rotate(0)"><path d="M5 0H10L5 5L0 10V5L5 0Z" fill="#ff92ac"/><path d="M20 15V20H15L20 15Z" fill="#ff92ac"/><path d="M20 5V10L15 15L10 20H5L20 5Z" fill="#ff92ac"/><path d="M15 0H20L5 15.0002L0 20.0002V15.0002L15 0Z" fill="#ff92ac"/></g><g transform="translate(530.75,82.23) scale(2.9899999999999998) rotate(0)"><path fill-rule="evenodd" clip-rule="evenodd" d="M10 20C15.5228 20 20 15.5228 20 10C20 4.47715 15.5228 0 10 0C4.47715 0 0 4.47715 0 10C0 15.5228 4.47715 20 10 20ZM10 17C13.866 17 17 13.866 17 10C17 6.13401 13.866 3 10 3C6.13401 3 3 6.13401 3 10C3 13.866 6.13401 17 10 17Z" fill="#1b41e1"/></g><rect x="605.4993" y="82.2283" width="59.8024" height="59.8024" fill="#ffffff"/><g transform="translate(605.5,82.23) scale(1.4949999999999999) rotate(0)"><path d="M5 0H10L5 5L0 10V5L5 0Z" fill="#e3e8fb"/><path d="M20 15V20H15L20 15Z" fill="#e3e8fb"/><path d="M20 5V10L15 15L10 20H5L20 5Z" fill="#e3e8fb"/><path d="M15 0H20L5 15.0002L0 20.0002V15.0002L15 0Z" fill="#e3e8fb"/></g><g transform="translate(635.4,82.23) scale(1.4949999999999999) rotate(0)"><path d="M5 0H10L5 5L0 10V5L5 0Z" fill="#ff83a0"/><path d="M20 15V20H15L20 15Z" fill="#ff83a0"/><path d="M20 5V10L15 15L10 20H5L20 5Z" fill="#ff83a0"/><path d="M15 0H20L5 15.0002L0 20.0002V15.0002L15 0Z" fill="#ff83a0"/></g><g transform="translate(605.5,112.13) scale(1.4949999999999999) rotate(0)"><path d="M5 0H10L5 5L0 10V5L5 0Z" fill="#fff2f5"/><path d="M20 15V20H15L20 15Z" fill="#fff2f5"/><path d="M20 5V10L15 15L10 20H5L20 5Z" fill="#fff2f5"/><path d="M15 0H20L5 15.0002L0 20.0002V15.0002L15 0Z" fill="#fff2f5"/></g><g transform="translate(635.4,112.13) scale(1.4949999999999999) rotate(0)"><path d="M10 5L5 0L0 5L5 10L0 15L5 20L10 15L15 20L20 15L15 10L20 5L15 0L10 5Z" fill="#ffebef"/></g><g transform="translate(680.25,82.23) scale(2.9899999999999998) rotate(0)"><path d="M10 5L5 0L0 5L5 10L0 15L5 20L10 15L15 20L20 15L15 10L20 5L15 0L10 5Z" fill="#dce2fa"/></g><g transform="translate(7.48,156.98) scale(2.9899999999999998) rotate(0)"><path fill-rule="evenodd" clip-rule="evenodd" d="M10 20C15.5228 20 20 15.5228 20 10C20 4.47715 15.5228 0 10 0C4.47715 0 0 4.47715 0 10C0 15.5228 4.47715 20 10 20ZM10 17C13.866 17 17 13.866 17 10C17 6.13401 13.866 3 10 3C6.13401 3 3 6.13401 3 10C3 13.866 6.13401 17 10 17Z" fill="#ff7999"/></g><g transform="translate(82.23,156.98) scale(2.9899999999999998) rotate(0)"><path d="M5 0H10L5 5L0 10V5L5 0Z" fill="#2e52e4"/><path d="M20 15V20H15L20 15Z" fill="#2e52e4"/><path d="M20 5V10L15 15L10 20H5L20 5Z" fill="#2e52e4"/><path d="M15 0H20L5 15.0002L0 20.0002V15.0002L15 0Z" fill="#2e52e4"/></g><rect x="156.9813" y="156.9813" width="59.8024" height="59.8024" fill="#ffffff"/><g transform="translate(156.98,156.98) scale(1.4949999999999999) rotate(0)"><path fill-rule="evenodd" clip-rule="evenodd" d="M10 20C15.5228 20 20 15.5228 20 10C20 4.47715 15.5228 0 10 0C4.47715 0 0 4.47715 0 10C0 15.5228 4.47715 20 10 20ZM10 17C13.866 17 17 13.866 17 10C17 6.13401 13.866 3 10 3C6.13401 3 3 6.13401 3 10C3 13.866 6.13401 17 10 17Z" fill="#c1cbf7"/></g><g transform="translate(186.88,156.98) scale(1.4949999999999999) rotate(0)"><path d="M10 5L5 0L0 5L5 10L0 15L5 20L10 15L15 20L20 15L15 10L20 5L15 0L10 5Z" fill="#5e7aea"/></g><g transform="translate(156.98,186.88) scale(1.4949999999999999) rotate(0)"><path d="M5 0H10L5 5L0 10V5L5 0Z" fill="#ff829f"/><path d="M20 15V20H15L20 15Z" fill="#ff829f"/><path d="M20 5V10L15 15L10 20H5L20 5Z" fill="#ff829f"/><path d="M15 0H20L5 15.0002L0 20.0002V15.0002L15 0Z" fill="#ff829f"/></g><g transform="translate(186.88,186.88) scale(1.4949999999999999) rotate(0)"><path fill-rule="evenodd" clip-rule="evenodd" d="M10 20C15.5228 20 20 15.5228 20 10C20 4.47715 15.5228 0 10 0C4.47715 0 0 4.47715 0 10C0 15.5228 4.47715 20 10 20ZM10 17C13.866 17 17 13.866 17 10C17 6.13401 13.866 3 10 3C6.13401 3 3 6.13401 3 10C3 13.866 6.13401 17 10 17Z" fill="#ffd8e1"/></g><rect x="231.73430000000002" y="156.9813" width="59.8024" height="59.8024" fill="#ffffff"/><g transform="translate(231.73,156.98) scale(1.4949999999999999) rotate(0)"><path d="M5 0H10L5 5L0 10V5L5 0Z" fill="#ff4974"/><path d="M20 15V20H15L20 15Z" fill="#ff4974"/><path d="M20 5V10L15 15L10 20H5L20 5Z" fill="#ff4974"/><path d="M15 0H20L5 15.0002L0 20.0002V15.0002L15 0Z" fill="#ff4974"/></g><g transform="translate(261.64,156.98) scale(1.4949999999999999) rotate(0)"><path fill-rule="evenodd" clip-rule="evenodd" d="M10 20C15.5228 20 20 15.5228 20 10C20 4.47715 15.5228 0 10 0C4.47715 0 0 4.47715 0 10C0 15.5228 4.47715 20 10 20ZM10 17C13.866 17 17 13.866 17 10C17 6.13401 13.866 3 10 3C6.13401 3 3 6.13401 3 10C3 13.866 6.13401 17 10 17Z" fill="#3456e5"/></g><g transform="translate(231.73,186.88) scale(1.4949999999999999) rotate(0)"><path fill-rule="evenodd" clip-rule="evenodd" d="M10 20C15.5228 20 20 15.5228 20 10C20 4.47715 15.5228 0 10 0C4.47715 0 0 4.47715 0 10C0 15.5228 4.47715 20 10 20ZM10 17C13.866 17 17 13.866 17 10C17 6.13401 13.866 3 10 3C6.13401 3 3 6.13401 3 10C3 13.866 6.13401 17 10 17Z" fill="#bec9f7"/></g><g transform="translate(261.64,186.88) scale(1.4949999999999999) rotate(0)"><path d="M10 5L5 0L0 5L5 10L0 15L5 20L10 15L15 20L20 15L15 10L20 5L15 0L10 5Z" fill="#516fe8"/></g><g transform="translate(306.49,156.98) scale(2.9899999999999998) rotate(0)"><path d="M10 5L5 0L0 5L5 10L0 15L5 20L10 15L15 20L20 15L15 10L20 5L15 0L10 5Z" fill="#ff7092"/></g><rect x="381.2403" y="156.9813" width="59.8024" height="59.8024" fill="#ffffff"/><g transform="translate(381.24,156.98) scale(1.4949999999999999) rotate(0)"><path d="M5 0H10L5 5L0 10V5L5 0Z" fill="#8398ef"/><path d="M20 15V20H15L20 15Z" fill="#8398ef"/><path d="M20 5V10L15 15L10 20H5L20 5Z" fill="#8398ef"/><path d="M15 0H20L5 15.0002L0 20.0002V15.0002L15 0Z" fill="#8398ef"/></g><g transform="translate(411.14,156.98) scale(1.4949999999999999) rotate(0)"><path d="M10 5L5 0L0 5L5 10L0 15L5 20L10 15L15 20L20 15L15 10L20 5L15 0L10 5Z" fill="#a1b1f3"/></g><g transform="translate(381.24,186.88) scale(1.4949999999999999) rotate(0)"><path d="M10 5L5 0L0 5L5 10L0 15L5 20L10 15L15 20L20 15L15 10L20 5L15 0L10 5Z" fill="#5874e9"/></g><g transform="translate(411.14,186.88) scale(1.4949999999999999) rotate(0)"><path d="M5 0H10L5 5L0 10V5L5 0Z" fill="#3456e5"/><path d="M20 15V20H15L20 15Z" fill="#3456e5"/><path d="M20 5V10L15 15L10 20H5L20 5Z" fill="#3456e5"/><path d="M15 0H20L5 15.0002L0 20.0002V15.0002L15 0Z" fill="#3456e5"/></g><rect x="455.99330000000003" y="156.9813" width="59.8024" height="59.8024" fill="#ffffff"/><g transform="translate(455.99,156.98) scale(1.4949999999999999) rotate(0)"><path d="M10 5L5 0L0 5L5 10L0 15L5 20L10 15L15 20L20 15L15 10L20 5L15 0L10 5Z" fill="#a6b5f3"/></g><g transform="translate(485.89,156.98) scale(1.4949999999999999) rotate(0)"><path fill-rule="evenodd" clip-rule="evenodd" d="M10 20C15.5228 20 20 15.5228 20 10C20 4.47715 15.5228 0 10 0C4.47715 0 0 4.47715 0 10C0 15.5228 4.47715 20 10 20ZM10 17C13.866 17 17 13.866 17 10C17 6.13401 13.866 3 10 3C6.13401 3 3 6.13401 3 10C3 13.866 6.13401 17 10 17Z" fill="#ffeff3"/></g><g transform="translate(455.99,186.88) scale(1.4949999999999999) rotate(0)"><path fill-rule="evenodd" clip-rule="evenodd" d="M10 20C15.5228 20 20 15.5228 20 10C20 4.47715 15.5228 0 10 0C4.47715 0 0 4.47715 0 10C0 15.5228 4.47715 20 10 20ZM10 17C13.866 17 17 13.866 17 10C17 6.13401 13.866 3 10 3C6.13401 3 3 6.13401 3 10C3 13.866 6.13401 17 10 17Z" fill="#5c78ea"/></g><g transform="translate(485.89,186.88) scale(1.4949999999999999) rotate(0)"><path d="M10 5L5 0L0 5L5 10L0 15L5 20L10 15L15 20L20 15L15 10L20 5L15 0L10 5Z" fill="#ff4672"/></g><g transform="translate(530.75,156.98) scale(2.9899999999999998) rotate(0)"><path d="M5 0H10L5 5L0 10V5L5 0Z" fill="#e4e8fb"/><path d="M20 15V20H15L20 15Z" fill="#e4e8fb"/><path d="M20 5V10L15 15L10 20H5L20 5Z" fill="#e4e8fb"/><path d="M15 0H20L5 15.0002L0 20.0002V15.0002L15 0Z" fill="#e4e8fb"/></g><g transform="translate(605.5,156.98) scale(2.9899999999999998) rotate(0)"><path fill-rule="evenodd" clip-rule="evenodd" d="M10 20C15.5228 20 20 15.5228 20 10C20 4.47715 15.5228 0 10 0C4.47715 0 0 4.47715 0 10C0 15.5228 4.47715 20 10 20ZM10 17C13.866 17 17 13.866 17 10C17 6.13401 13.866 3 10 3C6.13401 3 3 6.13401 3 10C3 13.866 6.13401 17 10 17Z" fill="#ffaec2"/></g><g transform="translate(680.25,156.98) scale(2.9899999999999998) rotate(0)"><path d="M5 0H10L5 5L0 10V5L5 0Z" fill="#1b41e1"/><path d="M20 15V20H15L20 15Z" fill="#1b41e1"/><path d="M20 5V10L15 15L10 20H5L20 5Z" fill="#1b41e1"/><path d="M15 0H20L5 15.0002L0 20.0002V15.0002L15 0Z" fill="#1b41e1"/></g><rect x="7.475300000000001" y="231.73430000000002" width="59.8024" height="59.8024" fill="#ffffff"/><g transform="translate(7.48,231.73) scale(1.4949999999999999) rotate(0)"><path fill-rule="evenodd" clip-rule="evenodd" d="M10 20C15.5228 20 20 15.5228 20 10C20 4.47715 15.5228 0 10 0C4.47715 0 0 4.47715 0 10C0 15.5228 4.47715 20 10 20ZM10 17C13.866 17 17 13.866 17 10C17 6.13401 13.866 3 10 3C6.13401 3 3 6.13401 3 10C3 13.866 6.13401 17 10 17Z" fill="#ff4d77"/></g><g transform="translate(37.38,231.73) scale(1.4949999999999999) rotate(0)"><path d="M10 5L5 0L0 5L5 10L0 15L5 20L10 15L15 20L20 15L15 10L20 5L15 0L10 5Z" fill="#9daef2"/></g><g transform="translate(7.48,261.64) scale(1.4949999999999999) rotate(0)"><path fill-rule="evenodd" clip-rule="evenodd" d="M10 20C15.5228 20 20 15.5228 20 10C20 4.47715 15.5228 0 10 0C4.47715 0 0 4.47715 0 10C0 15.5228 4.47715 20 10 20ZM10 17C13.866 17 17 13.866 17 10C17 6.13401 13.866 3 10 3C6.13401 3 3 6.13401 3 10C3 13.866 6.13401 17 10 17Z" fill="#ff6489"/></g><g transform="translate(37.38,261.64) scale(1.4949999999999999) rotate(0)"><path d="M10 5L5 0L0 5L5 10L0 15L5 20L10 15L15 20L20 15L15 10L20 5L15 0L10 5Z" fill="#ffc7d4"/></g><g transform="translate(82.23,231.73) scale(2.9899999999999998) rotate(0)"><path d="M5 0H10L5 5L0 10V5L5 0Z" fill="#3c5de6"/><path d="M20 15V20H15L20 15Z" fill="#3c5de6"/><path d="M20 5V10L15 15L10 20H5L20 5Z" fill="#3c5de6"/><path d="M15 0H20L5 15.0002L0 20.0002V15.0002L15 0Z" fill="#3c5de6"/></g><g transform="translate(156.98,231.73) scale(2.9899999999999998) rotate(0)"><path d="M5 0H10L5 5L0 10V5L5 0Z" fill="#4968e7"/><path d="M20 15V20H15L20 15Z" fill="#4968e7"/><path d="M20 5V10L15 15L10 20H5L20 5Z" fill="#4968e7"/><path d="M15 0H20L5 15.0002L0 20.0002V15.0002L15 0Z" fill="#4968e7"/></g><g transform="translate(231.73,231.73) scale(2.9899999999999998) rotate(0)"><path d="M5 0H10L5 5L0 10V5L5 0Z" fill="#ffd0db"/><path d="M20 15V20H15L20 15Z" fill="#ffd0db"/><path d="M20 5V10L15 15L10 20H5L20 5Z" fill="#ffd0db"/><path d="M15 0H20L5 15.0002L0 20.0002V15.0002L15 0Z" fill="#ffd0db"/></g><rect x="306.4873" y="231.73430000000002" width="59.8024" height="59.8024" fill="#ffffff"/><g transform="translate(306.49,231.73) scale(1.4949999999999999) rotate(0)"><path d="M10 5L5 0L0 5L5 10L0 15L5 20L10 15L15 20L20 15L15 10L20 5L15 0L10 5Z" fill="#90a3f1"/></g><g transform="translate(336.39,231.73) scale(1.4949999999999999) rotate(0)"><path fill-rule="evenodd" clip-rule="evenodd" d="M10 20C15.5228 20 20 15.5228 20 10C20 4.47715 15.5228 0 10 0C4.47715 0 0 4.47715 0 10C0 15.5228 4.47715 20 10 20ZM10 17C13.866 17 17 13.866 17 10C17 6.13401 13.866 3 10 3C6.13401 3 3 6.13401 3 10C3 13.866 6.13401 17 10 17Z" fill="#ff6287"/></g><g transform="translate(306.49,261.64) scale(1.4949999999999999) rotate(0)"><path fill-rule="evenodd" clip-rule="evenodd" d="M10 20C15.5228 20 20 15.5228 20 10C20 4.47715 15.5228 0 10 0C4.47715 0 0 4.47715 0 10C0 15.5228 4.47715 20 10 20ZM10 17C13.866 17 17 13.866 17 10C17 6.13401 13.866 3 10 3C6.13401 3 3 6.13401 3 10C3 13.866 6.13401 17 10 17Z" fill="#526fe9"/></g><g transform="translate(336.39,261.64) scale(1.4949999999999999) rotate(0)"><path fill-rule="evenodd" clip-rule="evenodd" d="M10 20C15.5228 20 20 15.5228 20 10C20 4.47715 15.5228 0 10 0C4.47715 0 0 4.47715 0 10C0 15.5228 4.47715 20 10 20ZM10 17C13.866 17 17 13.866 17 10C17 6.13401 13.866 3 10 3C6.13401 3 3 6.13401 3 10C3 13.866 6.13401 17 10 17Z" fill="#7f94ee"/></g><rect x="381.2403" y="231.73430000000002" width="59.8024" height="59.8024" fill="#ffffff"/><g transform="translate(381.24,231.73) scale(1.4949999999999999) rotate(0)"><path d="M5 0H10L5 5L0 10V5L5 0Z" fill="#ff8ca8"/><path d="M20 15V20H15L20 15Z" fill="#ff8ca8"/><path d="M20 5V10L15 15L10 20H5L20 5Z" fill="#ff8ca8"/><path d="M15 0H20L5 15.0002L0 20.0002V15.0002L15 0Z" fill="#ff8ca8"/></g><g transform="translate(411.14,231.73) scale(1.4949999999999999) rotate(0)"><path d="M5 0H10L5 5L0 10V5L5 0Z" fill="#ff3f6d"/><path d="M20 15V20H15L20 15Z" fill="#ff3f6d"/><path d="M20 5V10L15 15L10 20H5L20 5Z" fill="#ff3f6d"/><path d="M15 0H20L5 15.0002L0 20.0002V15.0002L15 0Z" fill="#ff3f6d"/></g><g transform="translate(381.24,261.64) scale(1.4949999999999999) rotate(0)"><path d="M10 5L5 0L0 5L5 10L0 15L5 20L10 15L15 20L20 15L15 10L20 5L15 0L10 5Z" fill="#627deb"/></g><g transform="translate(411.14,261.64) scale(1.4949999999999999) rotate(0)"><path d="M5 0H10L5 5L0 10V5L5 0Z" fill="#2348e2"/><path d="M20 15V20H15L20 15Z" fill="#2348e2"/><path d="M20 5V10L15 15L10 20H5L20 5Z" fill="#2348e2"/><path d="M15 0H20L5 15.0002L0 20.0002V15.0002L15 0Z" fill="#2348e2"/></g><g transform="translate(455.99,231.73) scale(2.9899999999999998) rotate(0)"><path d="M10 5L5 0L0 5L5 10L0 15L5 20L10 15L15 20L20 15L15 10L20 5L15 0L10 5Z" fill="#3c5de6"/></g><g transform="translate(530.75,231.73) scale(2.9899999999999998) rotate(0)"><path d="M5 0H10L5 5L0 10V5L5 0Z" fill="#95a7f1"/><path d="M20 15V20H15L20 15Z" fill="#95a7f1"/><path d="M20 5V10L15 15L10 20H5L20 5Z" fill="#95a7f1"/><path d="M15 0H20L5 15.0002L0 20.0002V15.0002L15 0Z" fill="#95a7f1"/></g><g transform="translate(605.5,231.73) scale(2.9899999999999998) rotate(0)"><path d="M5 0H10L5 5L0 10V5L5 0Z" fill="#284de3"/><path d="M20 15V20H15L20 15Z" fill="#284de3"/><path d="M20 5V10L15 15L10 20H5L20 5Z" fill="#284de3"/><path d="M15 0H20L5 15.0002L0 20.0002V15.0002L15 0Z" fill="#284de3"/></g><rect x="680.2523" y="231.73430000000002" width="59.8024" height="59.8024" fill="#ffffff"/><g transform="translate(680.25,231.73) scale(1.4949999999999999) rotate(0)"><path d="M5 0H10L5 5L0 10V5L5 0Z" fill="#ffd1dc"/><path d="M20 15V20H15L20 15Z" fill="#ffd1dc"/><path d="M20 5V10L15 15L10 20H5L20 5Z" fill="#ffd1dc"/><path d="M15 0H20L5 15.0002L0 20.0002V15.0002L15 0Z" fill="#ffd1dc"/></g><g transform="translate(710.15,231.73) scale(1.4949999999999999) rotate(0)"><path d="M5 0H10L5 5L0 10V5L5 0Z" fill="#ffeef2"/><path d="M20 15V20H15L20 15Z" fill="#ffeef2"/><path d="M20 5V10L15 15L10 20H5L20 5Z" fill="#ffeef2"/><path d="M15 0H20L5 15.0002L0 20.0002V15.0002L15 0Z" fill="#ffeef2"/></g><g transform="translate(680.25,261.64) scale(1.4949999999999999) rotate(0)"><path d="M5 0H10L5 5L0 10V5L5 0Z" fill="#ff84a1"/><path d="M20 15V20H15L20 15Z" fill="#ff84a1"/><path d="M20 5V10L15 15L10 20H5L20 5Z" fill="#ff84a1"/><path d="M15 0H20L5 15.0002L0 20.0002V15.0002L15 0Z" fill="#ff84a1"/></g><g transform="translate(710.15,261.64) scale(1.4949999999999999) rotate(0)"><path d="M10 5L5 0L0 5L5 10L0 15L5 20L10 15L15 20L20 15L15 10L20 5L15 0L10 5Z" fill="#ff7696"/></g><g transform="translate(7.48,306.49) scale(2.9899999999999998) rotate(0)"><path d="M10 5L5 0L0 5L5 10L0 15L5 20L10 15L15 20L20 15L15 10L20 5L15 0L10 5Z" fill="#ff95ae"/></g><g transform="translate(82.23,306.49) scale(2.9899999999999998) rotate(0)"><path fill-rule="evenodd" clip-rule="evenodd" d="M10 20C15.5228 20 20 15.5228 20 10C20 4.47715 15.5228 0 10 0C4.47715 0 0 4.47715 0 10C0 15.5228 4.47715 20 10 20ZM10 17C13.866 17 17 13.866 17 10C17 6.13401 13.866 3 10 3C6.13401 3 3 6.13401 3 10C3 13.866 6.13401 17 10 17Z" fill="#ff678b"/></g><g transform="translate(156.98,306.49) scale(2.9899999999999998) rotate(0)"><path d="M10 5L5 0L0 5L5 10L0 15L5 20L10 15L15 20L20 15L15 10L20 5L15 0L10 5Z" fill="#ffb5c7"/></g><rect x="231.73430000000002" y="306.4873" width="59.8024" height="59.8024" fill="#ffffff"/><g transform="translate(231.73,306.49) scale(1.4949999999999999) rotate(0)"><path d="M5 0H10L5 5L0 10V5L5 0Z" fill="#a1b1f3"/><path d="M20 15V20H15L20 15Z" fill="#a1b1f3"/><path d="M20 5V10L15 15L10 20H5L20 5Z" fill="#a1b1f3"/><path d="M15 0H20L5 15.0002L0 20.0002V15.0002L15 0Z" fill="#a1b1f3"/></g><g transform="translate(261.64,306.49) scale(1.4949999999999999) rotate(0)"><path d="M10 5L5 0L0 5L5 10L0 15L5 20L10 15L15 20L20 15L15 10L20 5L15 0L10 5Z" fill="#627deb"/></g><g transform="translate(231.73,336.39) scale(1.4949999999999999) rotate(0)"><path d="M10 5L5 0L0 5L5 10L0 15L5 20L10 15L15 20L20 15L15 10L20 5L15 0L10 5Z" fill="#3c5de6"/></g><g transform="translate(261.64,336.39) scale(1.4949999999999999) rotate(0)"><path d="M10 5L5 0L0 5L5 10L0 15L5 20L10 15L15 20L20 15L15 10L20 5L15 0L10 5Z" fill="#ff7a9a"/></g><rect x="306.4873" y="306.4873" width="59.8024" height="59.8024" fill="#ffffff"/><g transform="translate(306.49,306.49) scale(1.4949999999999999) rotate(0)"><path fill-rule="evenodd" clip-rule="evenodd" d="M10 20C15.5228 20 20 15.5228 20 10C20 4.47715 15.5228 0 10 0C4.47715 0 0 4.47715 0 10C0 15.5228 4.47715 20 10 20ZM10 17C13.866 17 17 13.866 17 10C17 6.13401 13.866 3 10 3C6.13401 3 3 6.13401 3 10C3 13.866 6.13401 17 10 17Z" fill="#7088ec"/></g><g transform="translate(336.39,306.49) scale(1.4949999999999999) rotate(0)"><path d="M10 5L5 0L0 5L5 10L0 15L5 20L10 15L15 20L20 15L15 10L20 5L15 0L10 5Z" fill="#738bed"/></g><g transform="translate(306.49,336.39) scale(1.4949999999999999) rotate(0)"><path d="M5 0H10L5 5L0 10V5L5 0Z" fill="#5a76ea"/><path d="M20 15V20H15L20 15Z" fill="#5a76ea"/><path d="M20 5V10L15 15L10 20H5L20 5Z" fill="#5a76ea"/><path d="M15 0H20L5 15.0002L0 20.0002V15.0002L15 0Z" fill="#5a76ea"/></g><g transform="translate(336.39,336.39) scale(1.4949999999999999) rotate(0)"><path d="M5 0H10L5 5L0 10V5L5 0Z" fill="#e0e5fb"/><path d="M20 15V20H15L20 15Z" fill="#e0e5fb"/><path d="M20 5V10L15 15L10 20H5L20 5Z" fill="#e0e5fb"/><path d="M15 0H20L5 15.0002L0 20.0002V15.0002L15 0Z" fill="#e0e5fb"/></g><g transform="translate(381.24,306.49) scale(2.9899999999999998) rotate(0)"><path d="M10 5L5 0L0 5L5 10L0 15L5 20L10 15L15 20L20 15L15 10L20 5L15 0L10 5Z" fill="#ccd4f8"/></g><g transform="translate(455.99,306.49) scale(2.9899999999999998) rotate(0)"><path d="M10 5L5 0L0 5L5 10L0 15L5 20L10 15L15 20L20 15L15 10L20 5L15 0L10 5Z" fill="#4161e6"/></g><rect x="530.7462999999999" y="306.4873" width="59.8024" height="59.8024" fill="#ffffff"/><g transform="translate(530.75,306.49) scale(1.4949999999999999) rotate(0)"><path fill-rule="evenodd" clip-rule="evenodd" d="M10 20C15.5228 20 20 15.5228 20 10C20 4.47715 15.5228 0 10 0C4.47715 0 0 4.47715 0 10C0 15.5228 4.47715 20 10 20ZM10 17C13.866 17 17 13.866 17 10C17 6.13401 13.866 3 10 3C6.13401 3 3 6.13401 3 10C3 13.866 6.13401 17 10 17Z" fill="#ffcbd7"/></g><g transform="translate(560.65,306.49) scale(1.4949999999999999) rotate(0)"><path d="M5 0H10L5 5L0 10V5L5 0Z" fill="#ffa7bc"/><path d="M20 15V20H15L20 15Z" fill="#ffa7bc"/><path d="M20 5V10L15 15L10 20H5L20 5Z" fill="#ffa7bc"/><path d="M15 0H20L5 15.0002L0 20.0002V15.0002L15 0Z" fill="#ffa7bc"/></g><g transform="translate(530.75,336.39) scale(1.4949999999999999) rotate(0)"><path d="M5 0H10L5 5L0 10V5L5 0Z" fill="#728aed"/><path d="M20 15V20H15L20 15Z" fill="#728aed"/><path d="M20 5V10L15 15L10 20H5L20 5Z" fill="#728aed"/><path d="M15 0H20L5 15.0002L0 20.0002V15.0002L15 0Z" fill="#728aed"/></g><g transform="translate(560.65,336.39) scale(1.4949999999999999) rotate(0)"><path d="M5 0H10L5 5L0 10V5L5 0Z" fill="#ff85a2"/><path d="M20 15V20H15L20 15Z" fill="#ff85a2"/><path d="M20 5V10L15 15L10 20H5L20 5Z" fill="#ff85a2"/><path d="M15 0H20L5 15.0002L0 20.0002V15.0002L15 0Z" fill="#ff85a2"/></g><g transform="translate(605.5,306.49) scale(2.9899999999999998) rotate(0)"><path fill-rule="evenodd" clip-rule="evenodd" d="M10 20C15.5228 20 20 15.5228 20 10C20 4.47715 15.5228 0 10 0C4.47715 0 0 4.47715 0 10C0 15.5228 4.47715 20 10 20ZM10 17C13.866 17 17 13.866 17 10C17 6.13401 13.866 3 10 3C6.13401 3 3 6.13401 3 10C3 13.866 6.13401 17 10 17Z" fill="#b8c4f6"/></g><rect x="680.2523" y="306.4873" width="59.8024" height="59.8024" fill="#ffffff"/><g transform="translate(680.25,306.49) scale(1.4949999999999999) rotate(0)"><path d="M10 5L5 0L0 5L5 10L0 15L5 20L10 15L15 20L20 15L15 10L20 5L15 0L10 5Z" fill="#a1b1f3"/></g><g transform="translate(710.15,306.49) scale(1.4949999999999999) rotate(0)"><path d="M5 0H10L5 5L0 10V5L5 0Z" fill="#ff3f6c"/><path d="M20 15V20H15L20 15Z" fill="#ff3f6c"/><path d="M20 5V10L15 15L10 20H5L20 5Z" fill="#ff3f6c"/><path d="M15 0H20L5 15.0002L0 20.0002V15.0002L15 0Z" fill="#ff3f6c"/></g><g transform="translate(680.25,336.39) scale(1.4949999999999999) rotate(0)"><path d="M10 5L5 0L0 5L5 10L0 15L5 20L10 15L15 20L20 15L15 10L20 5L15 0L10 5Z" fill="#8498ef"/></g><g transform="translate(710.15,336.39) scale(1.4949999999999999) rotate(0)"><path fill-rule="evenodd" clip-rule="evenodd" d="M10 20C15.5228 20 20 15.5228 20 10C20 4.47715 15.5228 0 10 0C4.47715 0 0 4.47715 0 10C0 15.5228 4.47715 20 10 20ZM10 17C13.866 17 17 13.866 17 10C17 6.13401 13.866 3 10 3C6.13401 3 3 6.13401 3 10C3 13.866 6.13401 17 10 17Z" fill="#6680eb"/></g><g transform="translate(7.48,381.24) scale(2.9899999999999998) rotate(0)"><path fill-rule="evenodd" clip-rule="evenodd" d="M10 20C15.5228 20 20 15.5228 20 10C20 4.47715 15.5228 0 10 0C4.47715 0 0 4.47715 0 10C0 15.5228 4.47715 20 10 20ZM10 17C13.866 17 17 13.866 17 10C17 6.13401 13.866 3 10 3C6.13401 3 3 6.13401 3 10C3 13.866 6.13401 17 10 17Z" fill="#ff3766"/></g><g transform="translate(82.23,381.24) scale(2.9899999999999998) rotate(0)"><path fill-rule="evenodd" clip-rule="evenodd" d="M10 20C15.5228 20 20 15.5228 20 10C20 4.47715 15.5228 0 10 0C4.47715 0 0 4.47715 0 10C0 15.5228 4.47715 20 10 20ZM10 17C13.866 17 17 13.866 17 10C17 6.13401 13.866 3 10 3C6.13401 3 3 6.13401 3 10C3 13.866 6.13401 17 10 17Z" fill="#4363e7"/></g><rect x="156.9813" y="381.2403" width="59.8024" height="59.8024" fill="#ffffff"/><g transform="translate(156.98,381.24) scale(1.4949999999999999) rotate(0)"><path d="M10 5L5 0L0 5L5 10L0 15L5 20L10 15L15 20L20 15L15 10L20 5L15 0L10 5Z" fill="#4e6ce8"/></g><g transform="translate(186.88,381.24) scale(1.4949999999999999) rotate(0)"><path d="M5 0H10L5 5L0 10V5L5 0Z" fill="#c3cdf7"/><path d="M20 15V20H15L20 15Z" fill="#c3cdf7"/><path d="M20 5V10L15 15L10 20H5L20 5Z" fill="#c3cdf7"/><path d="M15 0H20L5 15.0002L0 20.0002V15.0002L15 0Z" fill="#c3cdf7"/></g><g transform="translate(156.98,411.14) scale(1.4949999999999999) rotate(0)"><path d="M10 5L5 0L0 5L5 10L0 15L5 20L10 15L15 20L20 15L15 10L20 5L15 0L10 5Z" fill="#ff9fb6"/></g><g transform="translate(186.88,411.14) scale(1.4949999999999999) rotate(0)"><path d="M10 5L5 0L0 5L5 10L0 15L5 20L10 15L15 20L20 15L15 10L20 5L15 0L10 5Z" fill="#9daef2"/></g><g transform="translate(231.73,381.24) scale(2.9899999999999998) rotate(0)"><path d="M5 0H10L5 5L0 10V5L5 0Z" fill="#254ae3"/><path d="M20 15V20H15L20 15Z" fill="#254ae3"/><path d="M20 5V10L15 15L10 20H5L20 5Z" fill="#254ae3"/><path d="M15 0H20L5 15.0002L0 20.0002V15.0002L15 0Z" fill="#254ae3"/></g><g transform="translate(306.49,381.24) scale(2.9899999999999998) rotate(0)"><path fill-rule="evenodd" clip-rule="evenodd" d="M10 20C15.5228 20 20 15.5228 20 10C20 4.47715 15.5228 0 10 0C4.47715 0 0 4.47715 0 10C0 15.5228 4.47715 20 10 20ZM10 17C13.866 17 17 13.866 17 10C17 6.13401 13.866 3 10 3C6.13401 3 3 6.13401 3 10C3 13.866 6.13401 17 10 17Z" fill="#ff94ae"/></g><g transform="translate(381.24,381.24) scale(2.9899999999999998) rotate(0)"><path d="M10 5L5 0L0 5L5 10L0 15L5 20L10 15L15 20L20 15L15 10L20 5L15 0L10 5Z" fill="#ff4f79"/></g><rect x="455.99330000000003" y="381.2403" width="59.8024" height="59.8024" fill="#ffffff"/><g transform="translate(455.99,381.24) scale(1.4949999999999999) rotate(0)"><path fill-rule="evenodd" clip-rule="evenodd" d="M10 20C15.5228 20 20 15.5228 20 10C20 4.47715 15.5228 0 10 0C4.47715 0 0 4.47715 0 10C0 15.5228 4.47715 20 10 20ZM10 17C13.866 17 17 13.866 17 10C17 6.13401 13.866 3 10 3C6.13401 3 3 6.13401 3 10C3 13.866 6.13401 17 10 17Z" fill="#fffafb"/></g><g transform="translate(485.89,381.24) scale(1.4949999999999999) rotate(0)"><path d="M10 5L5 0L0 5L5 10L0 15L5 20L10 15L15 20L20 15L15 10L20 5L15 0L10 5Z" fill="#4262e7"/></g><g transform="translate(455.99,411.14) scale(1.4949999999999999) rotate(0)"><path d="M10 5L5 0L0 5L5 10L0 15L5 20L10 15L15 20L20 15L15 10L20 5L15 0L10 5Z" fill="#ff7192"/></g><g transform="translate(485.89,411.14) scale(1.4949999999999999) rotate(0)"><path d="M10 5L5 0L0 5L5 10L0 15L5 20L10 15L15 20L20 15L15 10L20 5L15 0L10 5Z" fill="#7c92ee"/></g><g transform="translate(530.75,381.24) scale(2.9899999999999998) rotate(0)"><path d="M5 0H10L5 5L0 10V5L5 0Z" fill="#f5f7fe"/><path d="M20 15V20H15L20 15Z" fill="#f5f7fe"/><path d="M20 5V10L15 15L10 20H5L20 5Z" fill="#f5f7fe"/><path d="M15 0H20L5 15.0002L0 20.0002V15.0002L15 0Z" fill="#f5f7fe"/></g><g transform="translate(605.5,381.24) scale(2.9899999999999998) rotate(0)"><path d="M10 5L5 0L0 5L5 10L0 15L5 20L10 15L15 20L20 15L15 10L20 5L15 0L10 5Z" fill="#ffceda"/></g><g transform="translate(680.25,381.24) scale(2.9899999999999998) rotate(0)"><path fill-rule="evenodd" clip-rule="evenodd" d="M10 20C15.5228 20 20 15.5228 20 10C20 4.47715 15.5228 0 10 0C4.47715 0 0 4.47715 0 10C0 15.5228 4.47715 20 10 20ZM10 17C13.866 17 17 13.866 17 10C17 6.13401 13.866 3 10 3C6.13401 3 3 6.13401 3 10C3 13.866 6.13401 17 10 17Z" fill="#ff6086"/></g></g></svg>